<svg width="181" height="104" viewBox="0 0 181 104" fill="none" xmlns="http://www.w3.org/2000/svg">
<g filter="url(#filter0_f_6_11)">
<ellipse cx="85" cy="72.0002" rx="38" ry="24" fill="black" fill-opacity="0.1"/>
</g>
<path d="M87.125 0.515625L102.625 4.51562L102.684 4.53125L102.737 4.55957L122.237 15.0596L122.266 15.0752L122.292 15.0938L134.737 24.0537L145.635 28.0166L166.604 32.5107L167.938 32.7969L166.736 33.4404L152.736 40.9404L152.685 40.9688L152.628 40.9834L14.6279 77.4834L14 77.6494V72.2734L14.1709 72.124L22.1611 65.1318L34.5938 53.6934L52.0518 18.2793L52.0947 18.1904L52.1689 18.126L65.1689 6.62598L65.2549 6.54883L65.3652 6.51855L86.8652 0.518555L86.9951 0.482422L87.125 0.515625ZM87.8789 22.0029C86.1234 22.0078 83.27 22.4545 81.293 23.0254C79.3158 23.5552 76.6381 24.5986 75.2354 25.4062C73.9124 26.168 71.9173 27.6583 70.6943 28.8496C69.5078 29.9589 67.852 31.8393 66.9355 33.1494C65.9469 34.5631 64.7428 37.1496 64.0977 39.0566C64.0958 39.062 64.0946 39.0679 64.0928 39.0732C63.7615 40.0743 63.4975 41.2457 63.3223 42.1133C63.1432 42.9995 63.0374 43.6666 63.0322 43.6992C62.8961 44.5616 63.2055 45.4345 63.8545 46.0186C64.5035 46.6026 65.4037 46.8187 66.2471 46.5928L106.315 35.8564C107.123 35.6398 107.776 35.0444 108.066 34.2598C108.357 33.4751 108.248 32.5985 107.775 31.9082C107.751 31.8726 107.368 31.3144 106.807 30.5996C106.263 29.9067 105.471 28.9616 104.629 28.2119C104.625 28.2082 104.62 28.2039 104.616 28.2002C103.104 26.8712 100.768 25.2329 99.2051 24.5029C97.7564 23.8265 95.3822 23.0257 93.7998 22.6582C92.209 22.2888 89.5961 21.9618 87.8789 22.0029Z" fill="white"/>
<path d="M83.8017 0.151065C85.7841 0.00880141 88.9016 -0.0586637 90.7246 0.0631748C92.5898 0.18787 95.8852 0.632403 98.0019 1.0456C100.075 1.49052 103.502 2.52881 105.565 3.32099C107.631 4.15271 110.966 5.81186 112.907 6.99677C114.731 8.1464 118.679 10.9428 121.949 13.4372L122.596 13.9333C126.026 16.6244 130.65 19.9027 132.936 21.3327C132.945 21.3379 132.954 21.3432 132.962 21.3483C135.234 22.7334 138.503 24.4068 140.306 25.1403C142.032 25.8427 144.608 26.6713 146.106 26.9606C146.116 26.9625 146.126 26.9636 146.136 26.9655C146.139 26.9661 146.142 26.9669 146.145 26.9675C147.685 27.2741 154.591 28.1652 161.546 28.9313C168.495 29.6968 175.78 30.5722 177.596 30.7653C178.765 30.9132 179.399 31.0612 179.791 31.2058C180.093 31.3173 180.263 31.4301 180.459 31.6149C180.836 32.0029 180.949 32.2495 181 32.6452C180.998 32.6789 180.994 32.7349 180.981 32.8142C180.959 32.9584 180.913 33.1609 180.829 33.4206C180.719 33.7602 180.548 34.1816 180.291 34.6813L73.5898 63.2722C72.6545 63.5228 71.9382 64.2765 71.7353 65.2233C71.5326 66.1704 71.878 67.1527 72.6289 67.7643H72.6299L72.6318 67.7663C72.6335 67.7677 72.6359 67.7699 72.6386 67.7722C72.6442 67.7767 72.6516 67.783 72.6611 67.7907C72.6806 67.8065 72.7092 67.8282 72.7441 67.8561C72.8139 67.9119 72.9125 67.9916 73.0351 68.0876C73.2799 68.2792 73.6227 68.5424 74.0127 68.8288C74.7292 69.3549 75.7774 70.0864 76.6972 70.5319C78.283 71.3272 80.7854 72.1984 82.3896 72.571C83.958 72.9352 86.5197 73.2576 88.2373 73.2272C89.99 73.235 92.8336 72.8013 94.6992 72.3015C96.5648 71.8016 99.2446 70.7549 100.759 69.8718C102.261 69.0393 104.319 67.4801 105.495 66.3806C106.698 65.2559 108.429 63.2499 109.405 61.7683C109.433 61.7262 109.459 61.683 109.484 61.6393C109.49 61.6295 109.635 61.4134 110.205 61.2839C110.756 61.1587 111.456 61.1848 112.104 61.404C112.839 61.6526 113.073 62.0329 113.162 62.2976C113.28 62.6461 113.223 63.0256 113.086 63.2624L113.026 63.3698C112.26 64.8567 111.975 65.2173 110.948 66.487C109.921 67.7013 108.051 69.5713 106.811 70.5798L106.79 70.5964C105.565 71.6124 103.526 72.9864 102.334 73.6169L102.319 73.6237C101.103 74.2771 99.0101 75.2243 97.7451 75.7331C96.7134 76.148 94.2285 76.7116 92.2851 76.9753C90.4129 77.2292 87.5282 77.3291 86.0303 77.1921L85.9502 77.1862L85.6465 77.1647C84.065 77.0311 81.5415 76.5583 79.9668 76.1013L79.8906 76.0807L79.583 75.9948C77.962 75.5128 75.1553 74.2504 73.2422 73.1149C71.2866 71.9542 68.9267 70.227 67.8662 69.2204L67.6719 69.029L65.5224 66.8073C64.9152 66.1798 64.0346 65.9045 63.1845 66.0671L63.0156 66.1061L60.4394 66.7829C58.1079 67.3985 56.4875 67.8338 55.3955 68.1306C54.6674 68.3285 54.1733 68.4657 53.8593 68.5534C53.7026 68.5972 53.5906 68.6291 53.5166 68.6501C53.4795 68.6606 53.4515 68.6681 53.4326 68.6735C53.4235 68.6761 53.4163 68.6779 53.4111 68.6794L53.4013 68.6823C52.6111 68.9114 51.9768 69.504 51.6953 70.277C51.4139 71.0501 51.5186 71.9129 51.9765 72.5964L51.9785 72.5974C51.9785 72.5974 51.9801 72.6003 51.9814 72.6022C51.9841 72.6062 51.9875 72.6119 51.9922 72.6188C52.0016 72.6329 52.0159 72.6529 52.0332 72.6784C52.0677 72.7295 52.1169 72.8031 52.1787 72.8932C52.3022 73.0734 52.476 73.3245 52.6777 73.6091C53.0708 74.1635 53.6105 74.9011 54.1045 75.4919C55.0655 76.6672 57.0551 78.7572 58.6552 80.1667C60.3206 81.6648 63.4363 83.9335 65.6074 85.2966C65.6164 85.3022 65.6256 85.3076 65.6347 85.3132C67.9183 86.7069 71.606 88.4323 73.9531 89.2126C76.2364 89.9716 79.9225 90.854 82.2822 91.1442C84.5077 91.4179 87.7626 91.6587 89.6494 91.6384C92.355 91.6265 94.8737 91.1243 99.417 89.9069C103.799 88.7327 106.445 87.8061 108.7 86.5466C108.709 86.5417 108.718 86.5368 108.728 86.5319C108.731 86.5299 108.735 86.5271 108.738 86.5251C110.362 85.6451 112.935 83.9412 114.502 82.7897C114.516 82.7792 114.531 82.7684 114.545 82.7575C116.152 81.5233 118.712 79.2558 120.243 77.5915C121.343 76.3965 122.109 75.4274 123.064 74.819C123.473 74.5592 123.774 74.4689 124.005 74.4548C124.207 74.4424 124.542 74.4749 125.066 74.7907C125.7 75.1727 125.886 75.4928 125.95 75.6413C126.021 75.8068 126.05 76.0198 126.002 76.319C125.951 76.6325 125.826 76.9614 125.679 77.2497C125.53 77.5406 125.407 77.6954 125.455 77.6345C124.102 79.3575 121.643 81.9339 120.051 83.3718C118.526 84.6989 116.124 86.5641 114.553 87.6481L114.249 87.8552C112.731 88.8723 109.996 90.373 108.208 91.2409C106.727 91.9187 103.857 92.9224 101.472 93.6159L100.485 93.8923C97.9436 94.5733 94.3156 95.2812 92.4941 95.4138L92.4414 95.4177L92.0683 95.4499C90.1333 95.6024 87.1786 95.642 85.3154 95.5182C83.3317 95.3865 79.9336 94.8831 77.8125 94.4304C75.7375 93.9874 72.3921 92.9629 70.4883 92.1901C68.5652 91.4095 65.2086 89.7418 63.1552 88.4577C63.1381 88.447 63.1209 88.4358 63.1035 88.4255C60.9776 87.1645 58.2564 85.2179 57.1269 84.2253L57.0869 84.1911L56.8525 83.989C55.6346 82.9253 53.7614 81.0402 52.5556 79.7067C51.3403 78.3626 49.5962 76.158 47.1054 72.4099C46.4952 71.4915 45.3682 71.0624 44.3017 71.3425L1.7822 82.5182L1.17673 82.155L1.0615 82.0895L0.992162 82.0456C0.89969 81.9812 0.741837 81.854 0.554662 81.6559C0.339733 81.4284 0.198444 81.2249 0.13474 81.1149C-0.0235311 80.7377 -0.0481572 80.4649 0.0917716 79.9216C0.170856 79.6342 0.486373 79.0802 1.25486 78.4909C1.2698 78.4794 1.28509 78.4675 1.29978 78.4557C2.16359 77.7626 7.92387 73.4907 14.2031 68.8532C17.3272 66.5459 20.3494 64.2973 22.7051 62.5212C24.9471 60.8307 26.7343 59.4581 27.332 58.9206C28.4084 57.9893 30.1194 56.1045 31.2324 54.7839C32.5065 53.2721 34.5829 50.0344 35.9326 47.572C37.3147 45.0503 39.737 39.7366 41.3574 35.7018C42.979 31.7531 45.2073 26.8845 46.2793 24.8493C47.3676 22.8528 49.4257 19.749 50.7988 17.9958C52.2063 16.2572 54.5277 13.761 55.874 12.5436C57.2557 11.2942 59.6587 9.41057 61.0967 8.44599C61.112 8.43572 61.1275 8.42533 61.1426 8.41474C62.5801 7.40459 64.8984 6.01385 66.209 5.33075C67.6198 4.59545 69.1101 3.8616 69.5664 3.66669C69.5701 3.66519 69.6186 3.6464 69.7334 3.60517C69.8449 3.56511 69.9912 3.51408 70.1709 3.4538C70.5298 3.33342 70.997 3.18319 71.5429 3.01239C72.6345 2.67087 74.0133 2.25736 75.4179 1.85907C78.2707 1.05214 81.8548 0.350389 83.8017 0.151065ZM77.623 78.0505V78.0495V78.0505ZM57.4218 75.3483H57.4228H57.4218ZM92.0957 4.16962C89.8533 3.95337 86.3508 3.97129 84.0908 4.19794C81.9113 4.40993 78.5165 4.99242 76.3838 5.60614C74.2736 6.17158 71.2246 7.31583 69.4863 8.11493L69.4306 8.1413C67.6871 8.99327 64.8179 10.6886 62.9746 11.9226L62.9345 11.9499C61.0201 13.2847 58.2165 15.7184 56.5771 17.4479C54.9214 19.1949 52.5502 22.2947 51.1914 24.3923C51.1853 24.4017 51.1788 24.4111 51.1728 24.4206C49.7652 26.6582 47.2288 32.0823 45.4209 36.4938L45.414 36.5114C43.5261 41.215 40.8505 46.8527 38.7021 50.5153L38.6933 50.5309C36.1423 54.9494 34.3436 57.5169 32.4746 59.4499L32.4521 59.4733C30.9372 61.0795 28.1316 63.5463 26.3047 64.9225L22.831 67.4909C21.8363 68.2267 21.5045 69.5649 22.04 70.6804C22.5756 71.7959 23.828 72.3737 25.0244 72.0573C68.3271 60.6069 111.632 49.1171 154.842 37.2731C156.026 36.9483 156.817 35.8333 156.732 34.6081C156.648 33.3827 155.71 32.3868 154.492 32.2282C147.176 31.2759 143.45 30.4811 141.531 29.8806C139.399 29.1553 135.608 27.3778 132.07 25.3015L132.054 25.2927L131.403 24.9099C128.039 22.8971 123.054 19.4329 119.477 16.655L119.473 16.6511C115.701 13.7346 110.793 10.306 108.455 9.07196L108.424 9.05634L107.991 8.83954C105.753 7.73548 102.451 6.37821 100.288 5.73603C98.0209 5.063 94.4043 4.33834 92.0957 4.16962ZM115.8 62.8796H115.801H115.8ZM87.6767 18.3591C89.0335 18.3005 91.3888 18.4847 92.8379 18.6862C94.2428 18.9231 96.3853 19.4539 97.5967 19.8718C98.8302 20.3253 100.981 21.268 102.267 21.946C103.488 22.5901 105.559 23.9767 106.815 24.9899C107.969 25.9652 109.67 27.6327 110.646 28.7868L110.833 29.0114C111.814 30.2239 113.256 32.3451 113.973 33.694C113.976 33.7011 113.981 33.7085 113.984 33.7155C115.068 35.7092 115.114 36.1631 115.102 36.4421C115.06 36.7207 114.826 37.2738 114.543 37.5808L114.546 37.5837C114.524 37.6058 114.466 37.6431 114.255 37.7331C113.777 37.9366 112.887 38.2326 111.047 38.7565C107.413 39.791 100.627 41.5641 87.3711 45.1159C74.1153 48.6678 67.3722 50.5203 63.7236 51.4372C61.8755 51.9016 60.9634 52.088 60.4502 52.1501C60.2586 52.1733 60.1761 52.1748 60.1289 52.1686C59.7393 52.0223 59.2743 51.6662 59.1015 51.4479C58.9513 51.2125 58.7631 50.7973 58.7051 48.527C58.7048 48.519 58.7053 48.5107 58.7051 48.5026C58.6516 46.9759 58.8401 44.4179 59.083 42.8776C59.3139 41.4139 60.0048 38.9033 60.5508 37.3864C61.1223 35.9074 62.3601 33.4248 63.291 31.9724C64.3133 30.4351 66.0252 28.2271 67.0996 27.1159C68.1493 26.0303 70.3703 24.2669 71.915 23.277C73.5085 22.256 75.765 21.018 76.8183 20.5388C77.7732 20.1044 80.0785 19.3937 81.8076 19.0544C81.8267 19.0506 81.8462 19.0468 81.8652 19.0427C83.5422 18.674 86.1815 18.385 87.6094 18.361C87.6318 18.3606 87.6543 18.36 87.6767 18.3591ZM87.9599 22.3825C86.2044 22.3874 83.3518 22.8331 81.375 23.404C79.3979 23.9338 76.7202 24.9772 75.3174 25.7849C73.9944 26.5466 71.9993 28.0368 70.7763 29.2282C69.5897 30.3376 67.934 32.2188 67.0176 33.529C66.0289 34.9427 64.8248 37.5292 64.1797 39.4362C64.1778 39.4416 64.1756 39.4475 64.1738 39.4528C63.8427 40.4536 63.5795 41.6245 63.4043 42.4919C63.2249 43.3796 63.1191 44.0481 63.1142 44.0788C62.9782 44.9411 63.2876 45.8141 63.9365 46.3981C64.5855 46.982 65.4859 47.1983 66.3291 46.9724L106.396 36.236C107.205 36.0195 107.858 35.424 108.148 34.6393C108.439 33.8548 108.33 32.978 107.857 32.2878C107.833 32.2522 107.45 31.6939 106.889 30.9792C106.345 30.2862 105.553 29.3403 104.711 28.5905C104.707 28.5869 104.702 28.5834 104.698 28.5798C103.186 27.2508 100.85 25.6125 99.2871 24.8825C97.8383 24.206 95.4632 23.4052 93.8808 23.0378C92.2899 22.6684 89.677 22.3414 87.9599 22.3825ZM66.5195 40.5895C66.3352 41.1982 66.1733 41.8755 66.04 42.4919C66.1733 41.8755 66.3352 41.1982 66.5195 40.5895ZM103.496 30.9968C104.199 31.7143 104.865 32.5649 105.284 33.1276C104.915 32.6313 104.353 31.911 103.743 31.2556L103.496 30.9968Z" fill="white"/>
<path d="M121.5 79.9998L109 65.4998C91.8 82.6998 75.1667 73.3332 69 66.4998L66 61.9998L48.5 67.9998C49.1667 69.9998 50.8 74.4998 52 76.4998C78.8 105.7 109.5 90.9998 121.5 79.9998Z" fill="white"/>
<ellipse cx="117.5" cy="69.4998" rx="10.5" ry="12.5" fill="white"/>
<defs>
<filter id="filter0_f_6_11" x="39.9" y="40.9002" width="90.2" height="62.2" filterUnits="userSpaceOnUse" color-interpolation-filters="sRGB">
<feFlood flood-opacity="0" result="BackgroundImageFix"/>
<feBlend mode="normal" in="SourceGraphic" in2="BackgroundImageFix" result="shape"/>
<feGaussianBlur stdDeviation="3.55" result="effect1_foregroundBlur_6_11"/>
</filter>
</defs>
</svg>
